<?xml version="1.0" encoding="utf-8"?>
<!-- Generator: Adobe Illustrator 25.2.3, SVG Export Plug-In . SVG Version: 6.00 Build 0)  -->
<svg version="1.1" id="Layer_1" xmlns="http://www.w3.org/2000/svg" xmlns:xlink="http://www.w3.org/1999/xlink" x="0px" y="0px"
	 viewBox="0 0 24 24" style="enable-background:new 0 0 24 24;" xml:space="preserve">
<style type="text/css">
	.st0{fill:#1F497D;}
	.st1{fill:none;}
	.st2{fill:#FFFFFF;}
</style>
<circle class="st0" cx="12" cy="12.4" r="11.3"/>
<path class="st1" d="M0,0h24v24H0V0z"/>
<path class="st2" d="M17.2,14.2c-0.8,0-1.5-0.1-2.3-0.3c-0.2-0.1-0.5,0-0.7,0.1l-1,1.3c-1.9-0.9-3.6-2.5-4.4-4.4l1.3-1
	c0.2-0.2,0.2-0.5,0.1-0.7C9.9,8.4,9.8,7.6,9.8,6.8c0-0.3-0.2-0.6-0.6-0.6H6.9c-0.3,0-0.7,0.1-0.7,0.6c0,6,5,11,11,11
	c0.5,0,0.7-0.5,0.7-0.8v-2.2C17.8,14.4,17.5,14.2,17.2,14.2z"/>
</svg>
