<?xml version="1.0" encoding="utf-8"?>
<!-- Generator: Adobe Illustrator 25.2.3, SVG Export Plug-In . SVG Version: 6.00 Build 0)  -->
<svg version="1.1" id="Layer_1" xmlns="http://www.w3.org/2000/svg" xmlns:xlink="http://www.w3.org/1999/xlink" x="0px" y="0px"
	 viewBox="0 0 24 24" style="enable-background:new 0 0 24 24;" xml:space="preserve">
<style type="text/css">
	.st0{fill:none;}
	.st1{fill:#1F497D;}
</style>
<g>
	<path class="st0" d="M0,0h24v24H0V0z"/>
	<path class="st0" d="M0,0h24v24H0V0z"/>
</g>
<path class="st1" d="M20,8h-3V6.2c0-2.6-1.9-4.9-4.5-5.2C9.5,0.7,7,3.1,7,6v2H4v14h16V8z M12,17c-1.1,0-2-0.9-2-2s0.9-2,2-2
	s2,0.9,2,2S13.1,17,12,17z M9,8V6c0-1.7,1.3-3,3-3s3,1.3,3,3v2H9z"/>
</svg>
