<?xml version="1.0" encoding="utf-8"?>
<!-- Generator: Adobe Illustrator 25.2.3, SVG Export Plug-In . SVG Version: 6.00 Build 0)  -->
<svg version="1.1" id="Layer_1" xmlns="http://www.w3.org/2000/svg" xmlns:xlink="http://www.w3.org/1999/xlink" x="0px" y="0px"
	 viewBox="0 0 24 24" style="enable-background:new 0 0 24 24;" xml:space="preserve">
<style type="text/css">
	.st0{fill:#DDDDDD;}
	.st1{fill:none;}
	.st2{fill:#666666;}
</style>
<circle class="st0" cx="11.8" cy="12" r="11.3"/>
<path class="st1" d="M-0.2,0h24v24h-24V0z"/>
<path class="st2" d="M14.5,4.8H9.2c-0.9,0-1.6,0.7-1.6,1.6v11.2c0,0.9,0.7,1.6,1.6,1.6h5.3c0.9,0,1.6-0.7,1.6-1.6V6.4
	C16.1,5.5,15.4,4.8,14.5,4.8z M11.8,18.6c-0.5,0-1-0.4-1-1c0-0.5,0.4-1,1-1c0.5,0,1,0.4,1,1C12.8,18.1,12.4,18.6,11.8,18.6z
	 M14.8,15.9H8.9V6.7h5.9V15.9z"/>
</svg>
