<svg xmlns="http://www.w3.org/2000/svg" viewBox="0 0 52 37"><defs><style>.cls-1,.cls-2,.cls-3{fill:none;stroke:#f3ac4a;stroke-width:2px;}.cls-1,.cls-3{stroke-miterlimit:10;}.cls-2,.cls-3{stroke-linecap:round;}.cls-2{stroke-linejoin:round;}</style></defs><g id="Layer_2" data-name="Layer 2"><g id="레이어_1" data-name="레이어 1"><path class="cls-1" d="M3.83,13.42H2.23A1.23,1.23,0,0,0,1,14.65v5.64a1.23,1.23,0,0,0,1.23,1.23h1.6"/><path class="cls-1" d="M48.17,21.52h1.6A1.23,1.23,0,0,0,51,20.29V14.65a1.23,1.23,0,0,0-1.23-1.23h-1.6"/><line class="cls-1" x1="3.83" y1="13.42" x2="3.83" y2="21.52"/><line class="cls-1" x1="48.17" y1="21.52" x2="48.17" y2="13.42"/><path class="cls-1" d="M3.83,21.52v3.14a6.07,6.07,0,0,0,6,6.13H42.16a6.07,6.07,0,0,0,6-6.13V21.52"/><path class="cls-1" d="M3.83,13.42v-.83a6.07,6.07,0,0,1,6-6.12H42.16a6.07,6.07,0,0,1,6,6.12v.83"/><line class="cls-1" x1="3.84" y1="11.1" x2="48.16" y2="11.1"/><line class="cls-1" x1="3.84" y1="23.84" x2="48.16" y2="23.84"/><polyline class="cls-2" points="21.45 14.43 24.06 20.62 26.66 14.43 31 14.43 31 17.97 27.53 17.97 30.13 20.62"/><polyline class="cls-2" points="41.73 14.43 44.45 14.43 44.45 17.21"/><path class="cls-3" d="M14.64,3.57a26.17,26.17,0,0,1,22.72,0"/><path class="cls-3" d="M14.64,33.43a26.17,26.17,0,0,0,22.72,0"/></g></g></svg>