<svg xmlns="http://www.w3.org/2000/svg" viewBox="0 0 900 600"><defs><style>.cls-1{fill:#b22234;}.cls-2{stroke:#fff;stroke-miterlimit:10;stroke-width:50px;}.cls-3{fill:#3c3b6e;}.cls-4{fill:#fff;}</style></defs><g id="Layer_2" data-name="Layer 2"><g id="Layer_1-2" data-name="Layer 1"><rect class="cls-1" width="900" height="600"/><path class="cls-2" d="M0,69.23H900m0,92.31H0m0,92.31H900m0,92.3H0m0,92.31H900m0,92.31H0"/><rect class="cls-3" width="394.43" height="323.08"/><g id="s18"><g id="s9"><g id="s5"><g id="s4"><path id="s" class="cls-4" d="M32.87,13.85l9.39,33.39L17.68,26.6H48.06L23.48,47.24Z"/><path id="s-2" data-name="s" class="cls-4" d="M32.87,78.46l9.39,33.4L17.68,91.22H48.06L23.48,111.86Z"/><path id="s-3" data-name="s" class="cls-4" d="M32.87,143.08l9.39,33.39L17.68,155.83H48.06L23.48,176.47Z"/><path id="s-4" data-name="s" class="cls-4" d="M32.87,207.69l9.39,33.4L17.68,220.45H48.06L23.48,241.09Z"/></g><path id="s-5" data-name="s" class="cls-4" d="M32.87,272.31l9.39,33.39L17.68,285.06H48.06L23.48,305.7Z"/></g><g id="s4-2" data-name="s4"><path id="s-6" data-name="s" class="cls-4" d="M65.74,46.15l9.39,33.4L50.55,58.91H80.93L56.35,79.55Z"/><path id="s-7" data-name="s" class="cls-4" d="M65.74,110.77l9.39,33.4L50.55,123.53H80.93L56.35,144.17Z"/><path id="s-8" data-name="s" class="cls-4" d="M65.74,175.38l9.39,33.4L50.55,188.14H80.93L56.35,208.78Z"/><path id="s-9" data-name="s" class="cls-4" d="M65.74,240l9.39,33.4L50.55,252.76H80.93L56.35,273.4Z"/></g></g><g id="s9-2" data-name="s9"><g id="s5-2" data-name="s5"><g id="s4-3" data-name="s4"><path id="s-10" data-name="s" class="cls-4" d="M98.61,13.85,108,47.24,83.42,26.6H113.8L89.22,47.24Z"/><path id="s-11" data-name="s" class="cls-4" d="M98.61,78.46l9.38,33.4L83.42,91.22H113.8L89.22,111.86Z"/><path id="s-12" data-name="s" class="cls-4" d="M98.61,143.08,108,176.47,83.42,155.83H113.8L89.22,176.47Z"/><path id="s-13" data-name="s" class="cls-4" d="M98.61,207.69l9.38,33.4L83.42,220.45H113.8L89.22,241.09Z"/></g><path id="s-14" data-name="s" class="cls-4" d="M98.61,272.31,108,305.7,83.42,285.06H113.8L89.22,305.7Z"/></g><g id="s4-4" data-name="s4"><path id="s-15" data-name="s" class="cls-4" d="M131.48,46.15l9.38,33.4L116.29,58.91h30.38L122.09,79.55Z"/><path id="s-16" data-name="s" class="cls-4" d="M131.48,110.77l9.38,33.4-24.57-20.64h30.38l-24.58,20.64Z"/><path id="s-17" data-name="s" class="cls-4" d="M131.48,175.38l9.38,33.4-24.57-20.64h30.38l-24.58,20.64Z"/><path id="s-18" data-name="s" class="cls-4" d="M131.48,240l9.38,33.4-24.57-20.64h30.38L122.09,273.4Z"/></g></g></g><g id="s18-2" data-name="s18"><g id="s9-3" data-name="s9"><g id="s5-3" data-name="s5"><g id="s4-5" data-name="s4"><path id="s-19" data-name="s" class="cls-4" d="M164.35,13.85l9.38,33.39L149.16,26.6h30.37L155,47.24Z"/><path id="s-20" data-name="s" class="cls-4" d="M164.35,78.46l9.38,33.4L149.16,91.22h30.37L155,111.86Z"/><path id="s-21" data-name="s" class="cls-4" d="M164.35,143.08l9.38,33.39-24.57-20.64h30.37L155,176.47Z"/><path id="s-22" data-name="s" class="cls-4" d="M164.35,207.69l9.38,33.4-24.57-20.64h30.37L155,241.09Z"/></g><path id="s-23" data-name="s" class="cls-4" d="M164.35,272.31l9.38,33.39-24.57-20.64h30.37L155,305.7Z"/></g><g id="s4-6" data-name="s4"><path id="s-24" data-name="s" class="cls-4" d="M197.22,46.15l9.38,33.4L182,58.91H212.4L187.83,79.55Z"/><path id="s-25" data-name="s" class="cls-4" d="M197.22,110.77l9.38,33.4L182,123.53H212.4l-24.57,20.64Z"/><path id="s-26" data-name="s" class="cls-4" d="M197.22,175.38l9.38,33.4L182,188.14H212.4l-24.57,20.64Z"/><path id="s-27" data-name="s" class="cls-4" d="M197.22,240l9.38,33.4L182,252.76H212.4L187.83,273.4Z"/></g></g><g id="s9-4" data-name="s9"><g id="s5-4" data-name="s5"><g id="s4-7" data-name="s4"><path id="s-28" data-name="s" class="cls-4" d="M230.09,13.85l9.38,33.39L214.9,26.6h30.37L220.7,47.24Z"/><path id="s-29" data-name="s" class="cls-4" d="M230.09,78.46l9.38,33.4L214.9,91.22h30.37L220.7,111.86Z"/><path id="s-30" data-name="s" class="cls-4" d="M230.09,143.08l9.38,33.39L214.9,155.83h30.37L220.7,176.47Z"/><path id="s-31" data-name="s" class="cls-4" d="M230.09,207.69l9.38,33.4L214.9,220.45h30.37L220.7,241.09Z"/></g><path id="s-32" data-name="s" class="cls-4" d="M230.09,272.31l9.38,33.39L214.9,285.06h30.37L220.7,305.7Z"/></g><g id="s4-8" data-name="s4"><path id="s-33" data-name="s" class="cls-4" d="M263,46.15l9.38,33.4L247.77,58.91h30.37L253.57,79.55Z"/><path id="s-34" data-name="s" class="cls-4" d="M263,110.77l9.38,33.4-24.57-20.64h30.37l-24.57,20.64Z"/><path id="s-35" data-name="s" class="cls-4" d="M263,175.38l9.38,33.4-24.57-20.64h30.37l-24.57,20.64Z"/><path id="s-36" data-name="s" class="cls-4" d="M263,240l9.38,33.4-24.57-20.64h30.37L253.57,273.4Z"/></g></g></g><g id="s9-5" data-name="s9"><g id="s5-5" data-name="s5"><g id="s4-9" data-name="s4"><path id="s-37" data-name="s" class="cls-4" d="M295.82,13.85l9.39,33.39L280.64,26.6H311L286.44,47.24Z"/><path id="s-38" data-name="s" class="cls-4" d="M295.82,78.46l9.39,33.4L280.64,91.22H311l-24.57,20.64Z"/><path id="s-39" data-name="s" class="cls-4" d="M295.82,143.08l9.39,33.39-24.57-20.64H311l-24.57,20.64Z"/><path id="s-40" data-name="s" class="cls-4" d="M295.82,207.69l9.39,33.4-24.57-20.64H311l-24.57,20.64Z"/></g><path id="s-41" data-name="s" class="cls-4" d="M295.82,272.31l9.39,33.39-24.57-20.64H311L286.44,305.7Z"/></g><g id="s4-10" data-name="s4"><path id="s-42" data-name="s" class="cls-4" d="M328.69,46.15l9.39,33.4L313.51,58.91h30.37L319.31,79.55Z"/><path id="s-43" data-name="s" class="cls-4" d="M328.69,110.77l9.39,33.4-24.57-20.64h30.37l-24.57,20.64Z"/><path id="s-44" data-name="s" class="cls-4" d="M328.69,175.38l9.39,33.4-24.57-20.64h30.37l-24.57,20.64Z"/><path id="s-45" data-name="s" class="cls-4" d="M328.69,240l9.39,33.4-24.57-20.64h30.37L319.31,273.4Z"/></g></g><g id="s5-6" data-name="s5"><g id="s4-11" data-name="s4"><path id="s-46" data-name="s" class="cls-4" d="M361.56,13.85,371,47.24,346.38,26.6h30.37L352.18,47.24Z"/><path id="s-47" data-name="s" class="cls-4" d="M361.56,78.46l9.39,33.4L346.38,91.22h30.37l-24.57,20.64Z"/><path id="s-48" data-name="s" class="cls-4" d="M361.56,143.08,371,176.47l-24.57-20.64h30.37l-24.57,20.64Z"/><path id="s-49" data-name="s" class="cls-4" d="M361.56,207.69l9.39,33.4-24.57-20.64h30.37l-24.57,20.64Z"/></g><path id="s-50" data-name="s" class="cls-4" d="M361.56,272.31,371,305.7l-24.57-20.64h30.37L352.18,305.7Z"/></g></g></g></svg>