<svg xmlns="http://www.w3.org/2000/svg" viewBox="0 0 49.94 37.28"><defs><style>.cls-1,.cls-2{fill:none;stroke:#f3ac4a;}.cls-1{stroke-miterlimit:10;stroke-width:2px;}</style></defs><g id="Layer_2" data-name="Layer 2"><g id="레이어_1" data-name="레이어 1"><polyline class="cls-1" points="41.41 15.29 36.45 1.28 1.28 13.71 8.27 33.5 11.62 32.32"/><path class="cls-1" d="M11.62,26.13a4.67,4.67,0,0,0-3.07-.23L6.27,19.45a4.83,4.83,0,0,0,2.65-5.72L30.52,6.1a4.85,4.85,0,0,0,5.66,2.78l2.26,6.41"/><line class="cls-1" x1="11.62" y1="32.32" x2="11.62" y2="26.13"/><line class="cls-1" x1="41.41" y1="15.29" x2="38.44" y2="15.29"/><polyline class="cls-1" points="11.62 26.13 11.62 15.29 38.44 15.29"/><polyline class="cls-1" points="11.62 32.32 11.62 36.28 48.94 36.28 48.94 15.29 41.41 15.29"/><path class="cls-1" d="M14.92,31.15A4.58,4.58,0,0,0,19,33.71H41.54a4.6,4.6,0,0,0,4.6-4.6V22.45a4.6,4.6,0,0,0-3.8-4.52"/><path class="cls-1" d="M14.42,28.61v.5a4.52,4.52,0,0,0,.5,2"/><path class="cls-1" d="M36,17.85h5.52a5.29,5.29,0,0,1,.8.08"/><path class="cls-1" d="M36,17.85H19a4.6,4.6,0,0,0-4.6,4.6v6.16"/><circle class="cls-1" cx="30.28" cy="25.78" r="4.2"/><path class="cls-2" d="M30.08,28.75V28a2.29,2.29,0,0,1-1.19-.34l.19-.5a2,2,0,0,0,1.12.34c.53,0,.91-.28.91-.69s-.3-.62-.87-.82c-.82-.29-1.28-.63-1.28-1.26a1.2,1.2,0,0,1,1.17-1.16v-.73h.46v.71a2.11,2.11,0,0,1,1,.27l-.18.49a1.92,1.92,0,0,0-1-.28c-.6,0-.8.34-.8.62s.28.55.95.8,1.2.64,1.2,1.31A1.29,1.29,0,0,1,30.54,28v.74Z"/></g></g></svg>