<svg xmlns="http://www.w3.org/2000/svg" viewBox="0 0 28.39 40"><defs><style>.cls-1{fill:none;stroke:#00b0f0;stroke-linecap:round;stroke-miterlimit:10;stroke-width:2px;}</style></defs><g id="Layer_2" data-name="Layer 2"><g id="레이어_1" data-name="레이어 1"><line class="cls-1" x1="1" y1="1" x2="27.39" y2="1"/><line class="cls-1" x1="1" y1="39" x2="27.39" y2="39"/><path class="cls-1" d="M9.7,21.08c-7.42,1.83-7,11.8-6.86,14a.46.46,0,0,0,.46.42H25.16a.47.47,0,0,0,.46-.47c-.23-15.57-11.53-15.33-12.11-15.3h0C3.33,19.07,2.86,7.53,2.87,5.08a.46.46,0,0,1,.46-.46H25.12a.46.46,0,0,1,.46.5C25.36,7.46,24.13,17.21,18.8,19"/><path class="cls-1" d="M20.14,25.85s2.79,3.84,2.48,7.41"/><path class="cls-1" d="M18.57,16.31s2.49-1.19,3.74-6.55"/></g></g></svg>