<svg xmlns="http://www.w3.org/2000/svg" viewBox="0 0 36.29 42"><defs><style>.cls-1,.cls-2{fill:none;stroke:#f3ac4a;stroke-miterlimit:10;stroke-width:2px;}.cls-2{stroke-linecap:round;}</style></defs><g id="Layer_2" data-name="Layer 2"><g id="레이어_1" data-name="레이어 1"><path class="cls-1" d="M30,4.81l3.61.44a2,2,0,0,1,1.64,2.32L31.46,39.13A2,2,0,0,1,29.31,41L7.85,38.39"/><rect class="cls-1" x="9.34" y="5.98" width="7.45" height="6.44" rx="0.43"/><rect class="cls-1" x="9.34" y="14.85" width="7.45" height="5.15" rx="0.31"/><rect class="cls-1" x="19.86" y="5.98" width="6.38" height="6.44" rx="0.37"/><rect class="cls-1" x="19.86" y="14.85" width="6.38" height="5.15" rx="0.29"/><line class="cls-2" x1="9.34" y1="23.71" x2="22.63" y2="23.71"/><line class="cls-2" x1="9.34" y1="26.48" x2="22.63" y2="26.48"/><line class="cls-2" x1="9.34" y1="29.25" x2="22.63" y2="29.25"/><line class="cls-2" x1="9.34" y1="32.02" x2="22.63" y2="32.02"/><path class="cls-1" d="M3.75,32.15v2.49A2.36,2.36,0,0,0,6.11,37H27.66A2.36,2.36,0,0,0,30,34.64V3.36A2.36,2.36,0,0,0,27.66,1H6.11A2.36,2.36,0,0,0,3.75,3.36V5.85"/><line class="cls-1" x1="3.75" y1="22.63" x2="3.75" y2="24.9"/><line class="cls-1" x1="3.75" y1="17.87" x2="3.75" y2="20.13"/><line class="cls-1" x1="3.75" y1="27.39" x2="3.75" y2="29.66"/><line class="cls-1" x1="3.75" y1="8.34" x2="3.75" y2="10.61"/><line class="cls-1" x1="3.75" y1="13.1" x2="3.75" y2="15.37"/><path class="cls-1" d="M3.75,5.85H2.13A1.13,1.13,0,0,0,1,7v.23A1.14,1.14,0,0,0,2.13,8.34H3.75"/><path class="cls-1" d="M3.75,8.34H5.54A1.14,1.14,0,0,0,6.67,7.21V7A1.13,1.13,0,0,0,5.54,5.85H3.75"/><path class="cls-1" d="M3.75,10.61H2.25a1.25,1.25,0,1,0,0,2.49h1.5"/><path class="cls-1" d="M3.75,13.1H5.42a1.25,1.25,0,1,0,0-2.49H3.75"/><path class="cls-1" d="M3.75,15.37H2.25a1.25,1.25,0,0,0,0,2.5h1.5"/><path class="cls-1" d="M3.75,17.87H5.42a1.25,1.25,0,0,0,0-2.5H3.75"/><path class="cls-1" d="M3.75,20.13H2.13A1.14,1.14,0,0,0,1,21.27v.22a1.14,1.14,0,0,0,1.13,1.14H3.75"/><path class="cls-1" d="M3.75,22.63H5.54a1.14,1.14,0,0,0,1.13-1.14v-.22a1.14,1.14,0,0,0-1.13-1.14H3.75"/><path class="cls-1" d="M3.75,27.39H5.54a1.14,1.14,0,0,0,1.13-1.13V26A1.13,1.13,0,0,0,5.54,24.9H3.75"/><path class="cls-1" d="M3.75,24.9H2.13A1.13,1.13,0,0,0,1,26v.23a1.14,1.14,0,0,0,1.13,1.13H3.75"/><path class="cls-1" d="M3.75,29.66H2.25a1.25,1.25,0,1,0,0,2.49h1.5"/><path class="cls-1" d="M3.75,32.15H5.42a1.25,1.25,0,1,0,0-2.49H3.75"/></g></g></svg>