<?xml version="1.0" encoding="utf-8"?>
<!-- Generator: Adobe Illustrator 25.2.3, SVG Export Plug-In . SVG Version: 6.00 Build 0)  -->
<svg version="1.1" id="Layer_1" xmlns="http://www.w3.org/2000/svg" xmlns:xlink="http://www.w3.org/1999/xlink" x="0px" y="0px"
	 viewBox="0 0 40 39.8" style="enable-background:new 0 0 40 39.8;" xml:space="preserve">
<style type="text/css">
	.st0{fill:#2FB0DE;}
	.st1{fill:#FFFFFF;stroke:#040000;stroke-miterlimit:10;}
</style>
<g id="Layer_2_1_">
	<g id="Layer_1-2">
		<path class="st0" d="M40,20.6c0-3-0.8-6-2.3-8.7C43.9-2,31.2,0,30.5,0.2c-2.6,0.5-5.1,1.3-7.5,2.4c-0.3,0-0.7,0-1,0
			c-8.4,0-15.6,5.8-17.5,13.9C9,11.5,12.2,9.4,14,8.6c-0.3,0.3-0.6,0.5-0.9,0.8l-0.3,0.3l-0.6,0.6L12,10.6l-0.5,0.5l-0.3,0.4
			L10.7,12c-0.1,0.1-0.2,0.3-0.3,0.4l-0.8,0.9l-0.4,0.4l-0.3,0.4l-0.3,0.4L8.2,15l-0.3,0.4l-0.3,0.4l-0.2,0.3C6.7,17,6,18,5.4,18.9
			l0,0l-0.4,0.7l0,0c-0.2,0.2-0.3,0.5-0.4,0.7l0,0c-0.3,0.6-0.7,1.2-1,1.8c-0.9,1.7-1.8,3.4-2.5,5.2c-5.1,18.3,10.9,10.6,13.1,9.4
			c8.9,4.4,19.7,0.7,24.1-8.2c0.3-0.6,0.6-1.3,0.8-1.9h-9.5c-1.5,2.5-4.2,4-7.2,4c-4.4,0.1-8-3.3-8.2-7.7h25.7
			C40,22.1,40,21.3,40,20.6z M3.8,36.7c-1.3-1.3-1.5-4.4,1.3-10.2c1.4,4,4.2,7.4,7.8,9.5C11.1,37,6.3,39.3,3.8,36.7z M14.1,18
			c0.3-4.3,3.9-7.5,8.1-7.4c4.3-0.1,7.8,3.2,8.1,7.4H14.1z M28.5,3.8c1.7-0.8,5.8-2.5,8.1-0.9c1.5,1,2.8,2.7,0.7,8.2
			C35.2,7.8,32.2,5.2,28.5,3.8z"/>
		<path class="st1" d="M27.8,39.1h-3.3V28.9h-1.8v-2.2h1.1c0.3,0,0.5-0.1,0.7-0.2c0.2-0.1,0.3-0.3,0.3-0.5v-0.2h3L27.8,39.1z"/>
		<path class="st1" d="M39.3,36c0,0.9-0.5,1.8-1.3,2.3c-1,0.7-2.2,1.1-3.4,1c-1.2,0.1-2.4-0.3-3.4-1c-0.8-0.5-1.2-1.4-1.2-2.3v-7.1
			c0-0.9,0.5-1.8,1.2-2.3c1-0.7,2.2-1,3.4-0.9c1.2-0.1,2.4,0.3,3.4,0.9c0.8,0.5,1.2,1.4,1.3,2.3V36z M36,36v-7.1
			c0-0.3-0.1-0.6-0.3-0.8c-0.3-0.2-0.6-0.3-1-0.3c-0.4,0-0.7,0.1-1,0.3c-0.2,0.2-0.3,0.5-0.3,0.8V36c0,0.8,0.5,1.1,1.3,1.1
			c0.4,0,0.7-0.1,1-0.3C35.9,36.6,36,36.3,36,36z"/>
	</g>
</g>
</svg>
