<?xml version="1.0" ?><!DOCTYPE svg  PUBLIC '-//W3C//DTD SVG 1.1//EN'  'http://www.w3.org/Graphics/SVG/1.1/DTD/svg11.dtd'><svg enable-background="new -286.85 -7.67 1024 1024" height="1024px" version="1.1" viewBox="-286.85 -7.67 1024 1024" width="1024px" xml:space="preserve" xmlns="http://www.w3.org/2000/svg" xmlns:xlink="http://www.w3.org/1999/xlink"><defs/><ellipse cx="250.014" cy="947.496" fill="#212121" rx="30.02" ry="30.497"/><path d="M498.61,194.4c-0.35-0.35-0.78-0.64-1.26-0.82V68c0-37.56-30.45-68-68-68H70.68c-37.55,0-68,30.44-68,68  v50.26c-0.64,0.15-1.2,0.48-1.65,0.93c-0.64,0.63-1.03,1.5-1.03,2.47v30c0,1.66,1.15,3.04,2.68,3.4v38.45  C1.22,194,0.17,195.37,0.17,197v58c0,1.01,0.41,1.93,1.07,2.59c0.4,0.4,0.89,0.7,1.44,0.89v15.36c-1.46,0.49-2.51,1.86-2.51,3.49v58  c0,1.01,0.41,1.93,1.07,2.59c0.4,0.4,0.89,0.71,1.44,0.89v601.85c0,37.56,30.45,68,68,68h358.67c37.55,0,68-30.44,68-68V258.41  c1.359-0.53,2.33-1.86,2.33-3.41v-58C499.68,195.99,499.27,195.07,498.61,194.4z M250.014,27.746c2.762,0,5.001,2.239,5.001,5  s-2.239,5-5.001,5c-2.761,0-5-2.239-5-5S247.253,27.746,250.014,27.746z M220.015,56.746h60c2.347,0,4.25,1.903,4.25,4.25  s-1.903,4.25-4.25,4.25h-60c-2.347,0-4.25-1.903-4.25-4.25S217.667,56.746,220.015,56.746z M181.167,53.246  c4.142,0,7.5,3.358,7.5,7.5s-3.358,7.5-7.5,7.5s-7.5-3.358-7.5-7.5S177.025,53.246,181.167,53.246z M250.014,982.163  c-18.847,0-34.125-15.522-34.125-34.667s15.278-34.667,34.125-34.667c18.848,0,34.126,15.522,34.126,34.667  S268.862,982.163,250.014,982.163z M469.015,892.496h-438v-777h438V892.496z" fill="#212121"/></svg>